<?xml version="1.0" encoding="utf-8"?>
<!-- Generator: Adobe Illustrator 17.0.0, SVG Export Plug-In . SVG Version: 6.00 Build 0)  -->
<!DOCTYPE svg PUBLIC "-//W3C//DTD SVG 1.1//EN" "http://www.w3.org/Graphics/SVG/1.1/DTD/svg11.dtd">
<svg version="1.1" id="Layer_1" xmlns="http://www.w3.org/2000/svg" xmlns:xlink="http://www.w3.org/1999/xlink" x="0px" y="0px"
	 width="552.76px" height="382.68px" viewBox="0 0 552.76 382.68" enable-background="new 0 0 552.76 382.68" xml:space="preserve">
<path fill="#C64F29" d="M137.556,162.135c0,0,43.776-42.368,64.566-53.644c30.567-16.579,67.523-13.791,67.523-13.791
	l-31.599,32.587c-31.293,3.724-31.162,3.474-42.659,7.108C180.098,139.229,137.556,162.135,137.556,162.135z"/>
<path fill="#E26133" d="M398.208,80.91c0,0-17.816,7.93-26.153,8.412c-21.755,1.257-49.249,0.769-67.351,2.072
	c-6.192,0.446-21.75,4.366-26.941,7.771c-8.91,5.845-25.151,20.313-31.085,29.164c-15.706,23.422-46.11,102.949-46.11,102.949
	s-6.073,21.505-10.362,27.459c-18.35,25.474-97.401,79.267-97.401,79.267s105.696-53.088,134.703-79.267
	c12.47-11.255,27.832-42.711,29.565-57.176l53.329,0.704c6.735,18.133-30.049,64.243-30.049,64.243s93.774-92.738,82.376-97.401
	c-2.877-1.177-90.892-1.036-90.892-1.036s14.734-39.742,46.337-48.7c11.904-3.374,37.696-3.151,48.7-8.807
	C377.953,104.869,398.208,80.91,398.208,80.91z"/>
<circle fill="#C64F29" cx="286.216" cy="52.279" r="27.718"/>
<rect x="260.755" y="277.259" fill="none" width="348.629" height="121.492"/>
<text transform="matrix(1 0 0 1 260.7543 303.2522)" fill="#E26133" font-family="'OratorStd'" font-size="49.8909">ocus</text>
</svg>
